<?xml version="1.0" encoding="utf-8"?>
<!-- Generator: Adobe Illustrator 16.0.4, SVG Export Plug-In . SVG Version: 6.00 Build 0)  -->
<!DOCTYPE svg PUBLIC "-//W3C//DTD SVG 1.1//EN" "http://www.w3.org/Graphics/SVG/1.1/DTD/svg11.dtd">
<svg version="1.1" id="gr_x5F_icon06_x5F_minify" xmlns="http://www.w3.org/2000/svg" xmlns:xlink="http://www.w3.org/1999/xlink"
	 x="0px" y="0px" width="250px" height="250px" viewBox="0 0 250 250" enable-background="new 0 0 250 250" xml:space="preserve">
<g id="gr_x5F_big_5_">
	<path id="gr_100_" fill="#F3BA48" d="M237.666,172.702c0,9.539-6.759,21.247-15.021,26.019l-82.623,47.701
		c-8.263,4.771-21.78,4.771-30.043,0l-82.623-47.701c-8.263-4.771-15.021-16.479-15.021-26.019V77.298
		c0-9.541,6.759-21.249,15.021-26.018l82.623-47.702c8.263-4.771,21.78-4.771,30.043,0l82.623,47.702
		c8.263,4.769,15.021,16.478,15.021,26.018V172.702z"/>
	<path fill="#FFFFFF" d="M166.514,109.981c2.107,2.112,1.396,3.834-1.587,3.834h-23.322c-2.979,0-5.419-2.439-5.419-5.421V85.07
		c0-2.982,1.729-3.695,3.832-1.587l3.24,3.239c2.106,2.104,5.557,2.104,7.663,0l13.71-13.714c2.106-2.106,5.56-2.106,7.666,0
		l4.694,4.696c2.106,2.106,2.106,5.556,0,7.666l-13.714,13.71c-2.106,2.112-2.106,5.558,0,7.667L166.514,109.981z M86.719,143.256
		c2.11,2.11,2.11,5.56,0,7.668l-13.71,13.708c-2.106,2.108-2.106,5.554,0,7.666l4.698,4.692c2.106,2.11,5.556,2.108,7.666,0
		l13.703-13.706c2.106-2.107,5.556-2.107,7.666-0.004l3.236,3.238c2.104,2.108,3.833,1.396,3.833-1.587v-23.322
		c0-2.982-2.441-5.42-5.42-5.42H85.066c-2.979,0-3.69,1.723-1.588,3.831L86.719,143.256z M85.373,73.012
		c-2.11-2.11-5.56-2.112-7.666-0.003l-4.698,4.696c-2.106,2.11-2.106,5.556,0,7.666l13.714,13.71c2.106,2.112,2.106,5.558,0,7.667
		l-3.236,3.233c-2.107,2.112-1.396,3.834,1.587,3.834h23.321c2.979,0,5.42-2.439,5.42-5.421V85.07c0-2.982-1.726-3.695-3.832-1.587
		l-3.24,3.239c-2.106,2.104-5.557,2.104-7.659,0L85.373,73.012z M166.521,140.021c2.103-2.108,1.391-3.831-1.588-3.831h-23.325
		c-2.979,0-5.42,2.438-5.42,5.42v23.322c0,2.98,1.729,3.695,3.833,1.587l3.236-3.238c2.11-2.106,5.56-2.104,7.666,0.004
		l13.703,13.706c2.11,2.108,5.56,2.11,7.666,0l4.698-4.692c2.106-2.112,2.106-5.558,0-7.666l-13.71-13.708
		c-2.11-2.108-2.11-5.558,0-7.668L166.521,140.021z"/>
</g>
</svg>
