<?xml version="1.0" encoding="utf-8"?>
<!-- Generator: Adobe Illustrator 16.0.0, SVG Export Plug-In . SVG Version: 6.00 Build 0)  -->
<!DOCTYPE svg PUBLIC "-//W3C//DTD SVG 1.1//EN" "http://www.w3.org/Graphics/SVG/1.1/DTD/svg11.dtd">
<svg version="1.1" id="Layer_1" xmlns="http://www.w3.org/2000/svg" xmlns:xlink="http://www.w3.org/1999/xlink" x="0px" y="0px"
	 width="611.254px" height="612px" viewBox="0 0 611.254 612" enable-background="new 0 0 611.254 612" xml:space="preserve">
<circle fill="#3DB39E" cx="305.604" cy="305.604" r="305.604"/>
<g>
	<path fill="#FFFFFF" d="M358.146,272.253h72.141c14.97-3.505,17.871-16.085,6.513-27.219l-17.044-16.072l59.403-59.234
		c5.253-5.226,5.265-13.721,0.013-18.946l-18.987-18.922c-5.226-5.227-13.772-5.213-19.013,0.013l-60.455,60.27l-19.145-18.055
		c-9.663-11.28-20.062-8.39-23.108,6.459l0.105,71.958C338.188,268.222,346.186,271.835,358.146,272.253z"/>
	<path fill="#FFFFFF" d="M419.796,381.344l17.045-16.138c11.383-11.187,8.507-23.794-6.448-27.298h-72.23
		c-11.964,0.434-19.973,4.071-19.564,19.865l-0.107,72.179c3.021,14.892,13.421,17.782,23.108,6.462l19.131-18.106l60.454,60.44
		c5.241,5.239,13.775,5.239,19.016,0.026l18.998-18.999c5.256-5.255,5.241-13.775-0.013-19.027L419.796,381.344z"/>
	<path fill="#FFFFFF" d="M249.581,173.667l-19.066,18.054l-60.309-60.294c-5.24-5.226-13.735-5.239-18.96-0.013l-18.948,18.946
		c-5.227,5.24-5.213,13.734,0.013,18.96l59.247,59.233l-16.99,16.072c-11.333,11.148-8.47,23.729,6.447,27.22h71.982
		c11.937-0.42,19.907-4.03,19.5-19.774l0.118-71.957C269.592,165.277,259.22,162.374,249.581,173.667z"/>
	<path fill="#FFFFFF" d="M252.995,337.487h-71.719c-14.917,3.533-18.056,16.14-6.723,27.312l16.992,16.136l-59.233,59.366
		c-5.227,5.253-5.239,13.774-0.013,19.025l18.946,19.001c5.213,5.212,13.734,5.212,18.96-0.025l60.284-60.441l19.066,18.105
		c9.638,11.307,19.998,8.432,23.045-6.445l-0.119-72.194C272.901,341.546,264.944,337.92,252.995,337.487z"/>
</g>
</svg>
